<svg width="36" height="36" viewBox="0 0 36 36" fill="none" xmlns="http://www.w3.org/2000/svg">
<path d="M2.65625 33.0643L4.79687 25.2484C3.47661 22.9611 2.782 20.366 2.78285 17.7077C2.78623 9.39107 9.55429 2.625 17.8712 2.625C21.9072 2.62697 25.6953 4.19762 28.5444 7.04868C31.3926 9.89973 32.961 13.6893 32.9596 17.7199C32.9559 26.036 26.1867 32.8032 17.8712 32.8032C17.8706 32.8032 17.8718 32.8032 17.8712 32.8032H17.8647C15.3398 32.8021 12.8586 32.1687 10.6547 30.9669L2.65625 33.0643Z" fill="#ECECEC"/>
<path d="M17.8738 5.17188C10.9562 5.17188 5.33067 10.7954 5.32813 17.7076C5.3271 20.0762 5.98999 22.3833 7.24525 24.3795L7.54367 24.8538L6.27646 29.4797L11.0229 28.2352L11.4813 28.5068C13.4063 29.6493 15.6133 30.2535 17.8641 30.2546H17.8689C24.7811 30.2546 30.4066 24.6305 30.4094 17.7177C30.4107 14.3679 29.1076 11.2179 26.7398 8.84835C24.3719 6.47882 21.2236 5.17329 17.8738 5.17188Z" fill="url(#paint0_linear_1746_81)"/>
<path fill-rule="evenodd" clip-rule="evenodd" d="M14.0989 11.3945C13.8163 10.7669 13.519 10.7542 13.2506 10.7431C13.0307 10.7338 12.7792 10.7344 12.528 10.7344C12.2765 10.7344 11.8681 10.8288 11.5228 11.206C11.1772 11.5833 10.2031 12.4952 10.2031 14.3501C10.2031 16.2051 11.5542 17.9972 11.7424 18.249C11.9309 18.5005 14.3504 22.4286 18.1826 23.9396C21.3671 25.1954 22.0151 24.9456 22.7066 24.8829C23.3978 24.8201 24.9371 23.9709 25.2511 23.0907C25.5653 22.2104 25.5653 21.4562 25.4712 21.2985C25.3768 21.1411 25.1256 21.047 24.7483 20.8585C24.3714 20.67 22.5178 19.7578 22.1722 19.632C21.8266 19.5063 21.5754 19.4435 21.3239 19.8208C21.0727 20.1981 20.3507 21.047 20.1305 21.2985C19.9107 21.5503 19.6908 21.5816 19.3136 21.3931C18.9366 21.2041 17.7223 20.8065 16.2819 19.5221C15.1612 18.5229 14.4047 17.2888 14.1845 16.9115C13.9647 16.5343 14.1611 16.3302 14.3501 16.1423C14.5194 15.9733 14.7271 15.702 14.9159 15.4819C15.1038 15.2618 15.1668 15.1046 15.2923 14.8534C15.418 14.6016 15.3553 14.3815 15.2609 14.193C15.1668 14.0045 14.4341 12.14 14.0989 11.3945Z" fill="white"/>
<defs>
<linearGradient id="paint0_linear_1746_81" x1="17.6135" y1="6.67711" x2="17.7407" y2="28.1117" gradientUnits="userSpaceOnUse">
<stop stop-color="#57D163"/>
<stop offset="1" stop-color="#23B33A"/>
</linearGradient>
</defs>
</svg>
